<?xml version="1.0" encoding="UTF-8" standalone="no"?>
<!-- Created with Inkscape (http://www.inkscape.org/) -->

<svg
   width="210mm"
   height="297mm"
   viewBox="0 0 210 297"
   version="1.1"
   id="svg5"
   xml:space="preserve"
   inkscape:export-filename="logo.svg"
   inkscape:export-xdpi="96"
   inkscape:export-ydpi="96"
   xmlns:inkscape="http://www.inkscape.org/namespaces/inkscape"
   xmlns:sodipodi="http://sodipodi.sourceforge.net/DTD/sodipodi-0.dtd"
   xmlns="http://www.w3.org/2000/svg"
   xmlns:svg="http://www.w3.org/2000/svg"><sodipodi:namedview
     id="namedview7"
     pagecolor="#505050"
     bordercolor="#eeeeee"
     borderopacity="1"
     inkscape:showpageshadow="0"
     inkscape:pageopacity="0"
     inkscape:pagecheckerboard="0"
     inkscape:deskcolor="#505050"
     inkscape:document-units="mm"
     showgrid="false" /><defs
     id="defs2" /><g
     inkscape:label="Camada 1"
     inkscape:groupmode="layer"
     id="layer1"><path
       style="fill:#e3dbdb;stroke-width:0.264583"
       d="m 112.43689,231.40196 v -1.45521 h 0.93867 c 0.67521,0 1.12079,-0.1965 1.5875,-0.70009 0.78209,-0.84389 0.79246,-1.03762 0.13734,-2.56595 -0.83436,-1.94649 -3.98643,-10.63231 -3.98643,-10.98498 0,-0.23276 0.50563,-0.30299 1.77825,-0.247 l 1.77824,0.0782 1.31872,4.16719 c 0.72529,2.29195 1.3836,4.16646 1.4629,4.16558 0.0793,-8e-4 0.67137,-1.69753 1.3157,-3.77031 0.64434,-2.07279 1.2736,-3.97707 1.39837,-4.23173 0.18155,-0.37056 0.57196,-0.46302 1.95516,-0.46302 1.66904,0 1.72217,0.0204 1.5491,0.59531 -0.75241,2.49937 -5.25278,14.2114 -5.73422,14.92309 -0.80474,1.1896 -2.40665,1.9441 -4.12763,1.9441 h -1.37167 z m -83.634744,-3.59189 c -1.20364,-0.71747 -1.82595,-1.76228 -1.82469,-3.06351 0.002,-2.34103 1.91984,-3.73534 5.54243,-4.03004 1.93216,-0.15718 1.99992,-0.18601 2.08044,-0.88502 0.10559,-0.91667 -0.96966,-2.05558 -1.94069,-2.05558 -0.79858,0 -1.75264,0.44714 -2.0583,0.96467 -0.43805,0.7417 -3.0957,0.33334 -3.0957,-0.47567 0,-2.84056 6.5842,-4.23353 9.07851,-1.92067 1.34392,1.24615 1.46437,1.78515 1.55375,6.95272 l 0.0834,4.82018 -1.5875,-0.0774 c -1.4105,-0.0687 -1.59682,-0.14289 -1.67103,-0.66494 l -0.0835,-0.58756 -1.06488,0.7047 c -1.47145,0.97376 -3.67736,1.11376 -5.01217,0.31811 z m 5.07384,-2.60546 c 0.57737,-0.57737 0.7734,-1.02266 0.7734,-1.75681 v -0.98341 l -1.47571,0.1523 c -1.89708,0.1958 -2.75763,0.74656 -2.75763,1.76491 0,1.63215 2.14143,2.14152 3.45994,0.82301 z m 23.893722,2.64846 c -1.825876,-0.82916 -2.955903,-2.64871 -3.187898,-5.13309 -0.424781,-4.54888 2.580635,-8.04322 6.422326,-7.46713 0.618567,0.0928 1.41972,0.40074 1.780336,0.68441 0.360617,0.28366 0.726184,0.51574 0.812372,0.51574 0.08619,0 0.156704,-1.36048 0.156704,-3.02331 0,-3.40107 -0.09569,-3.26326 2.154577,-3.10271 l 1.285007,0.0917 v 8.838 8.83801 h -1.750637 c -1.724673,0 -1.748761,-0.01 -1.62419,-0.66146 0.144021,-0.75339 -0.104476,-0.85433 -0.608401,-0.24714 -1.015654,1.22379 -3.534153,1.53257 -5.440196,0.667 z m 4.601374,-2.66993 c 1.054449,-0.6429 1.382466,-1.43456 1.382466,-3.33654 0,-2.33879 -1.079949,-3.8061 -2.801315,-3.8061 -1.586286,0 -3.026847,1.79816 -3.013707,3.76182 0.0095,1.41543 0.912759,3.08242 1.903526,3.5129 1.165608,0.50645 1.511355,0.4884 2.52903,-0.13208 z m 10.382385,2.45939 c -2.027788,-1.06465 -2.995729,-2.65445 -3.136861,-5.15213 -0.147209,-2.6052 0.328242,-4.05181 1.822942,-5.54651 1.008465,-1.00847 1.502752,-1.28717 2.737414,-1.54348 2.346933,-0.48723 4.601755,0.0469 6.044483,1.43175 1.220271,1.17134 1.611793,2.2239 1.728909,4.64793 0.100372,2.07749 0.05041,2.35959 -0.655254,3.70008 -1.081638,2.05467 -2.668037,3.00798 -5.212659,3.13241 -1.656842,0.081 -2.048637,0.002 -3.328974,-0.67005 z m 4.087881,-2.30514 c 1.492726,-0.6237 2.231641,-2.67703 1.709531,-4.75053 -0.836608,-3.32247 -4.599855,-3.37966 -5.522603,-0.0839 -0.543944,1.94278 0.395359,4.30673 1.970064,4.95807 0.738923,0.30564 0.830341,0.29951 1.843008,-0.12361 z m 65.561242,2.58671 c -0.47203,-0.2327 -1.12687,-0.85507 -1.4552,-1.38303 -0.56493,-0.90844 -0.59696,-1.22967 -0.59696,-5.98702 v -5.02709 h 1.68215 1.68215 l -0.0283,3.57188 c -0.0431,5.43259 0.32044,6.35 2.51622,6.35 0.89573,0 1.23098,-0.14002 1.66922,-0.69714 0.50403,-0.64078 0.54837,-1.04723 0.54837,-5.02709 v -4.32994 h 1.71979 1.71979 v 5.93149 c 0,3.26231 0.0723,6.11981 0.1606,6.34999 0.13646,0.35561 -0.10216,0.41852 -1.5875,0.41852 h -1.7481 v -0.79375 c 0,-0.83547 -0.36673,-1.06951 -0.62427,-0.39839 -0.50224,1.30882 -3.84937,1.91316 -5.65794,1.02157 z m 15.07365,-0.12482 c -2.17595,-1.07708 -3.23649,-3.02943 -3.23371,-5.95302 0.002,-2.19476 0.37628,-3.29466 1.59,-4.67353 1.11003,-1.26106 2.7786,-2.04264 4.36076,-2.04264 1.51562,0 3.49494,0.75716 4.21436,1.61215 1.0113,1.20187 0.89319,1.7055 -0.51232,2.1844 -1.16823,0.39806 -1.20739,0.39295 -1.84005,-0.23971 -0.42613,-0.42613 -0.94604,-0.64643 -1.52562,-0.64643 -1.71668,0 -2.84932,1.4413 -2.84862,3.62489 5.3e-4,1.69862 0.69083,3.0072 1.89745,3.59707 0.86285,0.42181 1.07054,0.43382 1.85209,0.10713 0.48414,-0.20237 1.03653,-0.55639 1.22753,-0.78671 0.31436,-0.37906 0.45733,-0.36413 1.5083,0.15746 0.63857,0.31691 1.16691,0.65637 1.17409,0.75434 0.0328,0.44795 -1.52474,1.929 -2.48955,2.36725 -1.501,0.68181 -3.92788,0.65352 -5.37471,-0.0626 z m 25.73668,0.19251 c -1.22287,-0.53422 -2.47728,-1.70399 -3.11728,-2.90696 -0.46547,-0.87493 -0.58116,-1.53694 -0.58371,-3.34016 -0.003,-1.98454 0.0831,-2.39567 0.73033,-3.49676 1.42493,-2.42403 3.90548,-3.51205 6.59282,-2.89173 2.76252,0.63766 4.25545,2.58302 4.29357,5.59474 l 0.0218,1.71979 -4.15111,0.0728 -4.15111,0.0728 0.27353,0.78465 c 0.15044,0.43156 0.6434,1.09588 1.09547,1.47627 0.99193,0.83465 2.31378,0.77074 3.59108,-0.1736 l 0.81593,-0.60325 0.96143,0.5081 c 1.24023,0.65543 1.37418,1.04817 0.62829,1.84213 -1.47183,1.56669 -4.95666,2.23429 -7.00101,1.34121 z m 4.51664,-8.29764 c -0.37646,-1.60244 -2.25308,-2.40195 -3.53324,-1.50529 -0.51419,0.36015 -1.38027,1.66998 -1.38027,2.08746 0,0.08 1.144,0.14543 2.54222,0.14543 h 2.54223 z m 8.16978,8.25461 c -1.48596,-0.73336 -1.70621,-1.47933 -1.70621,-5.77876 v -3.85866 l -1.05833,-0.16923 -1.05834,-0.16924 v -1.2891 -1.2891 h 1.05834 1.05833 v -1.70196 c 0,-1.88988 -0.0575,-1.83322 2.18281,-2.14947 l 1.25677,-0.1774 v 2.01441 2.01442 h 1.32292 1.32292 v 1.48887 1.48887 l -1.32292,-0.12711 -1.32292,-0.12712 v 3.34783 c 0,2.25109 0.10402,3.45184 0.3175,3.66533 0.17463,0.17462 0.75606,0.3175 1.29206,0.3175 0.787,0 1.00527,0.11457 1.1341,0.59531 0.32725,1.22116 0.18519,1.79203 -0.51192,2.05707 -1.0024,0.38111 -3.04296,0.30265 -3.96511,-0.15246 z M 11.630635,219.23113 v -8.86354 h 4.08802 c 6.033441,0 7.652111,0.51395 8.722431,2.76947 0.56904,1.19917 0.60152,4.04706 0.0581,5.09785 -0.41487,0.80227 -1.95515,2.2973 -2.58216,2.5063 -0.3613,0.12043 0.87295,2.41564 2.98614,5.553 0.55822,0.82876 1.01494,1.57291 1.01494,1.65365 0,0.0808 -0.92273,0.1433 -2.05052,0.139 l -2.05052,-0.008 -1.85705,-3.36563 -1.857061,-3.36563 -1.38409,-0.08 -1.38409,-0.08 v 3.45341 3.45341 h -1.85209 -1.85208 z m 8.736641,-1.19447 c 1.45069,-1.03298 1.2808,-3.55984 -0.2941,-4.37426 -0.45745,-0.23655 -1.5116,-0.3844 -2.740861,-0.3844 h -1.99752 v 2.81735 2.81733 l 2.132,-0.1644 c 1.536921,-0.11852 2.346501,-0.31715 2.900481,-0.71162 z m 20.36752,3.70801 v -6.35 h 1.71979 1.7198 v 0.84364 0.84364 l 0.56663,-0.60821 c 2.116117,-2.27139 6.257828,-1.50586 7.342434,1.35713 0.149273,0.39402 0.287195,2.8348 0.306496,5.42395 l 0.03509,4.70756 -1.744078,0.0782 -1.74408,0.0782 v -4.38974 c 0,-4.36303 -0.0042,-4.39389 -0.680898,-5.07064 -0.566883,-0.56688 -0.843777,-0.65497 -1.653644,-0.52607 -0.57757,0.0919 -1.2146,0.43316 -1.56806,0.83997 -0.56382,0.6489 -0.59532,0.90829 -0.59532,4.90372 v 4.21858 h -1.85208 -1.85208 z m 43.391668,0 v -6.35 h 1.5875 1.5875 v 0.82943 0.82943 l 0.543362,-0.69077 c 1.230566,-1.56441 4.439567,-1.59433 5.978162,-0.0557 l 0.86488,0.86488 0.579996,-0.61738 c 1.378315,-1.46715 4.50279,-1.82953 6.020596,-0.69828 1.52013,1.13299 1.68845,1.79808 1.831,7.23504 l 0.13119,5.00338 h -1.75689 -1.75688 v -4.25368 -4.25369 l -0.773398,-0.7734 c -0.838703,-0.8387 -1.244119,-0.92778 -2.213134,-0.48627 -1.288282,0.58699 -1.511384,1.43915 -1.511384,5.77297 v 3.99407 H 93.519172 91.79938 v -4.08859 c 0,-2.43293 -0.118956,-4.34968 -0.293759,-4.73333 -0.489275,-1.07384 -2.045453,-1.5524 -2.904169,-0.8931 -0.893107,0.6857 -1.035405,1.45485 -1.035405,5.59658 v 4.11844 h -1.719791 -1.719792 z m 21.431246,-2.51354 v -8.86354 h 1.71979 1.7198 v 8.86354 8.86354 h -1.7198 -1.71979 z m 19.57917,0.0262 v -8.88973 h 3.92073 c 5.86252,0 7.7995,0.78359 8.51618,3.44511 0.48353,1.79568 0.12927,3.36564 -1.01824,4.51258 l -0.96762,0.96713 1.05833,0.92726 c 1.05535,0.92464 1.05833,0.93277 1.05833,2.87978 0,2.30949 -0.55742,3.32677 -2.33738,4.26569 -0.98431,0.51922 -1.59038,0.59213 -5.66626,0.68165 l -4.56407,0.10025 z m 7.01146,5.93448 c 1.48556,-0.34308 2.34919,-1.40004 2.15183,-2.6335 -0.24118,-1.50729 -0.92377,-1.87194 -3.50405,-1.87194 h -2.21965 v 2.20486 c 0,1.21267 0.0794,2.28423 0.17639,2.38125 0.25174,0.25175 2.15159,0.20662 3.39548,-0.0807 z m 0.62757,-7.4437 c 0.96501,-0.3364 1.35681,-0.92831 1.35681,-2.04979 0,-1.81691 -0.92018,-2.42029 -3.69103,-2.42029 h -1.86522 v 2.38125 2.38125 h 1.68031 c 0.92417,0 2.05777,-0.13158 2.51913,-0.29241 z m 33.90056,1.48305 v -8.86354 h 1.71979 1.71979 v 5.05948 c 0,5.83757 -0.19968,5.66921 2.57352,2.16983 l 1.74523,-2.20223 h 2.08158 2.08159 l -1.71766,2.07617 c -0.94471,1.14189 -1.90064,2.22803 -2.12429,2.41364 -0.22365,0.18562 -0.40664,0.50653 -0.40664,0.71314 0,0.2066 0.96329,1.81774 2.14064,3.5803 1.17735,1.76255 2.20212,3.36487 2.27726,3.5607 0.10701,0.27884 -0.29375,0.35605 -1.84824,0.35605 h -1.98487 l -1.65777,-2.64841 c -1.63582,-2.61335 -1.66509,-2.64225 -2.21062,-2.18282 -0.8926,0.75173 -0.94143,0.90215 -0.94568,2.913 l -0.004,1.91823 h -1.71979 -1.71979 z M 98.678547,200.7106 c -10.252252,-1.14935 -17.149913,-3.42827 -20.079985,-6.63424 -2.148279,-2.35056 -1.879182,-1.53957 -4.64657,-14.00356 -1.645602,-7.4116 -5.741024,-25.11948 -7.404232,-32.01458 -0.43997,-1.82397 -1.234228,-8.04214 -1.407136,-11.01635 -0.09106,-1.56628 -0.01233,-2.24206 0.350184,-3.00601 0.554707,-1.16896 2.347357,-2.54179 4.297661,-3.29121 1.932559,-0.7426 5.916869,-1.38498 7.987995,-1.28789 l 1.719792,0.0806 v 1.32086 1.32086 l -3.280748,0.43882 c -4.661945,0.62355 -7.774133,1.95149 -7.972465,3.40175 -0.202726,1.48241 0.701609,2.36112 3.570647,3.4695 8.157967,3.15162 20.769243,4.73506 37.84507,4.75172 18.18056,0.0178 30.3896,-2.2168 34.91786,-6.3908 2.00672,-1.84973 2.23251,-3.52132 0.58145,-4.3048 -1.00321,-0.47606 -3.7462,-1.22978 -4.47547,-1.22978 -0.42804,0 -0.46296,-0.15729 -0.30842,-1.38906 0.0959,-0.76399 0.25688,-1.48051 0.35783,-1.59226 0.26723,-0.29582 3.97996,0.46978 5.54675,1.1438 1.65461,0.71179 3.10689,2.26386 3.35479,3.58533 0.2626,1.39973 -0.011,2.74483 -4.29914,21.13865 -0.8142,3.4925 -1.69699,7.30249 -1.96175,8.46666 -1.33002,5.84835 -3.10828,8.88481 -6.57441,11.22609 -6.85856,4.63278 -18.45605,4.13342 -31.23027,-1.34471 -8.758206,-3.75589 -15.81481,-8.40469 -21.491866,-14.15857 -4.252574,-4.31013 -6.619832,-7.50598 -8.945451,-12.07658 l -1.45524,-2.86002 -2.72224,-1.20871 c -1.497232,-0.66479 -2.772584,-1.15837 -2.834116,-1.09684 -0.06153,0.0615 0.02133,1.28458 0.184145,2.71788 0.232915,2.05042 0.408022,2.69656 0.821362,3.03081 1.852882,1.49834 2.542095,2.27044 4.596598,5.14942 3.201612,4.48642 5.195202,6.83074 8.457575,9.94552 10.515576,10.03982 25.672203,17.02012 39.650843,18.26098 6.66932,0.59202 13.24788,-0.78793 17.39095,-3.64803 1.5341,-1.05904 3.96029,-3.57503 5.14957,-5.34018 2.18411,-3.24169 3.73646,-8.49248 4.36282,-14.75705 0.49596,-4.96052 0.91592,-4.21137 1.18521,2.11425 0.33805,7.94085 -1.24258,12.26875 -6.46263,17.69525 l -2.71574,2.82315 -1.04251,4.59596 c -1.36205,6.00464 -1.699,7.07192 -2.64497,8.3778 -2.62792,3.62773 -8.11765,5.92631 -17.59195,7.36582 -3.8002,0.57739 -16.4348,0.71706 -20.781793,0.22973 z m 30.162503,-72.86686 c -0.65212,-0.18822 -0.66047,-0.22619 -0.59183,-2.68822 0.0383,-1.37352 0.13315,-2.99179 0.2108,-3.59616 l 0.14119,-1.09886 -2.59206,-0.17596 c -1.42563,-0.0968 -2.74088,-0.22363 -2.92279,-0.2819 -0.35826,-0.11476 -0.43268,-1.39871 -0.16008,-2.76172 l 0.17065,-0.85324 2.83024,0.18489 2.83024,0.18489 0.17699,-3.09881 c 0.0973,-1.70434 0.24225,-3.20441 0.32202,-3.33347 0.0798,-0.12907 0.86566,-0.23467 1.74643,-0.23467 h 1.60139 l -0.18904,3.39878 -0.18905,3.39878 1.81318,0.17121 c 0.99725,0.0942 2.31217,0.17206 2.92204,0.1731 0.60988,10e-4 1.17488,0.10869 1.25556,0.23924 0.0807,0.13054 0.0701,0.97005 -0.0235,1.86558 l -0.17018,1.62822 -3.06975,-0.0797 -3.06975,-0.0796 -0.19374,3.28936 c -0.10655,1.80915 -0.28514,3.37419 -0.39687,3.47786 -0.3414,0.31678 -1.75236,0.47237 -2.4521,0.27039 z m -33.205211,-3.63488 c -6.428343,-0.99346 -11.888885,-6.25566 -13.227023,-12.74659 -0.779608,-3.78166 -0.32806,-7.14283 1.460727,-10.87316 1.837717,-3.832369 5.450133,-6.781197 9.781921,-7.985027 1.823815,-0.50685 6.700986,-0.43327 8.587656,0.12955 3.50582,1.04585 6.36783,2.98279 8.19893,5.548842 2.17219,3.044055 3.0572,5.794355 3.07972,9.570745 0.0275,4.60304 -1.31897,8.1597 -4.29266,11.33929 -2.97753,3.1837 -6.36447,4.80849 -10.462545,5.01911 -1.283136,0.066 -2.690164,0.0647 -3.126726,-0.003 z m 3.253607,-3.52204 c 0.74064,-0.74064 2.170354,-3.80116 2.170354,-4.64597 0,-0.32622 -0.52402,-0.39409 -3.042712,-0.39409 -1.673489,0 -3.042708,0.0379 -3.042708,0.0843 0,0.0464 0.191728,0.73096 0.426061,1.52135 0.705263,2.37882 1.783469,4.17152 2.53015,4.2068 0.09795,0.005 0.529431,-0.34294 0.958855,-0.77236 z m 5.614894,-0.96049 c 0.51204,-0.31316 1.63188,-1.32641 2.48852,-2.25168 l 1.55753,-1.68231 -0.90104,-0.1857 c -0.49556,-0.10214 -1.53979,-0.10513 -2.32052,-0.007 l -1.41949,0.17905 -0.45339,1.45521 c -0.24936,0.80037 -0.65238,1.83625 -0.8956,2.30197 -0.24322,0.46571 -0.44222,0.96918 -0.44222,1.1188 0,0.31534 0.96822,-0.0615 2.38621,-0.9287 z m -11.484569,-1.55663 -0.823516,-2.50415 -2.447395,-0.009 c -1.461471,-0.006 -2.447396,0.0972 -2.447396,0.25518 0,0.50608 3.162443,3.42316 4.42146,4.07841 2.170509,1.12964 2.236451,1.03709 1.296847,-1.82005 z m -3.012289,-5.43336 h 1.573829 l -0.190175,-1.12448 c -0.104595,-0.61846 -0.190172,-2.01744 -0.190172,-3.10885 0,-1.09141 0.08558,-2.49039 0.190172,-3.10885 l 0.190175,-1.12448 h -3.055768 -3.055766 l -0.305331,1.12448 c -0.397767,1.46489 -0.174869,5.32162 0.384352,6.65034 l 0.432636,1.02796 1.226108,-0.16806 c 0.674362,-0.0924 1.934334,-0.16806 2.79994,-0.16806 z m 12.289408,-1.27539 c 0.26384,-1.58888 0.27055,-5.25695 0.0113,-6.19909 l -0.20018,-0.7276 h -4.064916 -4.064916 l -0.186864,1.99412 c -0.170265,1.81696 -0.07853,3.54379 0.290846,5.47507 l 0.138152,0.72231 3.935468,-0.0133 3.93547,-0.0133 0.2056,-1.23815 z m 5.52117,1.01081 h 2.21708 l 0.40712,-1.37094 c 0.47358,-1.5947 0.53583,-4.79548 0.11666,-5.99791 l -0.29047,-0.83323 -2.6861,1.1e-4 -2.6861,1.1e-4 v 4.23621 c 0,3.41906 0.068,4.21012 0.35237,4.10093 0.1938,-0.0744 1.35005,-0.13528 2.56944,-0.13528 z m -6.54526,-11.28169 c 0.10696,-0.7501 -1.391153,-4.602727 -2.075379,-5.337157 -0.75225,-0.80744 -1.970537,-0.76777 -2.527533,0.0823 -0.514225,0.784798 -1.951484,4.823817 -1.956551,5.498327 -0.0032,0.43039 0.276945,0.46473 3.237606,0.39687 3.082837,-0.0707 3.245087,-0.10193 3.321857,-0.64035 z m -8.579125,-2.212065 c 0.485719,-1.382444 0.972198,-2.721902 1.081058,-2.976562 0.122248,-0.28598 0.08258,-0.46302 -0.103756,-0.46302 -0.504283,0 -2.99851,1.341868 -4.084952,2.197658 -1.072341,0.844684 -3.078311,3.227229 -3.078311,3.656189 0,0.14544 1.10952,0.21853 2.651416,0.17468 l 2.651413,-0.0754 z m 16.303625,2.420955 c 0,-0.36557 -1.44414,-2.213325 -2.54774,-3.259795 -1.05108,-0.996684 -3.33271,-2.336162 -3.97934,-2.336162 -0.2827,0 -0.25201,0.21916 0.13896,0.992188 0.276,0.5457 0.7781,1.855394 1.11579,2.910424 l 0.61399,1.918225 h 2.32916 c 1.28104,0 2.32918,-0.10119 2.32918,-0.22488 z m -53.048959,20.75598 c -1.424771,-0.45178 -3.307292,-1.43611 -3.307292,-1.72932 0,-0.20066 1.25303,-2.8831 1.469734,-3.14636 0.03952,-0.048 0.356444,0.0992 0.704276,0.3271 0.96017,0.62912 3.617854,1.47998 4.622784,1.47998 1.026969,0 2.449419,-0.53512 2.915038,-1.09662 0.17552,-0.21166 0.393147,-0.85518 0.483619,-1.43005 0.146069,-0.92812 0.07004,-1.14123 -0.678691,-1.90248 -0.5936,-0.60353 -1.402447,-1.01894 -2.732576,-1.40343 -4.491583,-1.29834 -6.188842,-2.30701 -6.950903,-4.13088 -0.795962,-1.905 -0.076,-4.63191 1.462942,-5.54098 0.972029,-0.57419 0.990034,-0.66423 0.264189,-1.32111 -0.917461,-0.83029 -1.296151,-1.84836 -1.290018,-3.468075 0.0062,-1.638714 0.619879,-3.333382 1.485352,-4.101832 0.279162,-0.24786 1.171662,-0.75469 1.983338,-1.12629 2.597702,-1.18927 6.305105,-0.90871 8.860337,0.67051 l 0.883528,0.54605 -0.792509,1.56996 -0.792509,1.569952 -1.12032,-0.708694 c -0.89286,-0.564798 -1.534022,-0.732848 -3.157945,-0.827688 -1.987129,-0.11606 -2.057614,-0.099 -2.84427,0.687638 -0.468961,0.46896 -0.806646,1.083574 -0.806646,1.468164 0,1.04407 1.121698,2.139745 2.694276,2.631775 0.773721,0.24208 2.216594,0.6926 3.206387,1.00115 3.330977,1.0384 4.910497,2.80295 4.934545,5.5126 0.01468,1.65593 -0.830448,3.38124 -1.949744,3.98026 -0.82057,0.43916 -0.857922,0.69346 -0.156953,1.06861 1.169712,0.62601 1.754325,2.89781 1.301578,5.05792 -0.248116,1.18379 -0.532196,1.65411 -1.673468,2.77054 -0.990698,0.96914 -1.717294,1.43099 -2.601534,1.65364 -1.589003,0.40012 -5.065035,0.36651 -6.416545,-0.062 z m 6.983475,-12.56746 c 1.699297,-1.58738 0.714222,-3.52376 -2.231959,-4.3874 -2.889263,-0.84696 -3.373114,-0.83308 -4.174876,0.11976 -1.71025,2.03252 -0.242202,3.98177 3.656693,4.85531 1.3057,0.29254 1.956823,0.1534 2.750142,-0.58767 z m 85.223814,-3.59055 v -4.35815 l -3.63802,-0.0736 -3.63802,-0.0736 -0.0799,-1.695695 c -0.0555,-1.17757 0.0254,-1.76246 0.26458,-1.914184 0.18945,-0.12016 1.85931,-0.2203 3.71081,-0.22253 l 3.36637,-0.004 0.0732,-3.902608 0.0732,-3.9026 1.1694,-0.0835 c 2.46974,-0.17646 2.39347,-0.31149 2.32788,4.12137 l -0.0577,3.899678 h 3.30729 3.30729 v 1.852094 1.852075 l -3.39446,0.0742 -3.39447,0.0742 0.0687,4.04105 c 0.0378,2.22259 -0.0193,4.18349 -0.12688,4.35757 -0.11628,0.18815 -0.83307,0.3165 -1.76749,0.3165 h -1.57189 z M 121.69142,93.957513 c -4.81036,-0.62097 -9.47508,-3.58517 -12.03759,-7.64932 -1.53343,-2.431993 -2.11358,-4.744245 -2.09869,-8.364559 0.0119,-2.89066 0.0863,-3.368027 0.83139,-5.330362 1.81217,-4.772895 5.01317,-7.888157 9.881,-9.61635 2.20139,-0.781542 8.47228,-1.010539 10.90019,-0.398047 5.32782,1.34406 9.45867,5.546246 10.92278,11.111426 0.67763,2.575705 0.56909,6.444196 -0.25357,9.037475 -1.51686,4.781647 -5.43495,8.810567 -10.08713,10.372487 -2.93497,0.98538 -5.13788,1.21426 -8.05838,0.83725 z m 5.7689,-3.05208 c 2.5905,-0.61075 4.05529,-1.44637 6.35999,-3.62817 1.2272,-1.16177 1.27293,-1.50711 0.42674,-3.222718 -0.47147,-0.955907 -0.47192,-0.951074 0.15731,-1.706303 l 0.51863,-0.622474 0.911,0.537509 c 1.07584,0.634759 1.2558,0.494196 1.70012,-1.327952 0.4285,-1.757251 0.3791,-4.810397 -0.0962,-5.948066 l -0.39903,-0.955 -4.89264,0.13408 -4.89264,0.134083 v -0.849365 c 0,-0.513348 0.20934,-1.038821 0.52917,-1.328256 0.38686,-0.350108 0.52916,-0.814909 0.52916,-1.728401 0,-1.435807 0.40768,-1.922309 1.50536,-1.796447 0.69773,0.08 0.74853,0.170947 0.82358,1.474327 l 0.08,1.389062 h 2.77926 2.77925 l -0.47798,-0.817131 c -0.26289,-0.449421 -1.04153,-1.406842 -1.73032,-2.127602 -2.14396,-2.243486 -6.72581,-4.011583 -7.97243,-3.07649 -0.60676,0.455126 -0.92663,3.088008 -0.94742,7.798183 -0.0212,4.805715 -0.30851,5.197433 -5.76895,7.865769 l -2.97656,1.454547 v 1.215001 c 0,1.210884 -0.003,1.214724 -0.85806,1.132094 -0.92283,-0.0892 -1.45952,-0.841177 -1.70303,-2.386304 -0.18869,-1.19725 0.65412,-1.90786 4.50966,-3.802277 1.87208,-0.919845 3.62825,-1.875588 3.9026,-2.123876 0.42092,-0.380926 0.49882,-0.837581 0.49882,-2.923963 v -2.472534 h -1.83081 -1.83083 l -0.42665,1.284552 c -0.58313,1.755627 -1.74991,3.527047 -2.90194,4.405741 l -0.96048,0.732589 -0.90913,-1.028629 c -0.89685,-1.014735 -0.90187,-1.033989 -0.37147,-1.425503 2.07734,-1.53339 2.35165,-1.905326 3.04479,-4.128447 l 0.69264,-2.221553 h 2.74694 2.74694 v -1.555104 c 0,-2.062657 -0.33596,-2.354323 -2.24956,-1.952943 -2.44121,0.512051 -4.34163,1.614406 -6.49473,3.767315 -1.57165,1.571519 -2.16334,2.391219 -2.77582,3.845549 -0.72618,1.724279 -0.77857,2.07912 -0.78071,5.287891 -0.002,3.360171 0.018,3.481041 0.87576,5.235255 2.85397,5.836521 9.66311,8.986571 16.12975,7.461961 z m -4.53955,-2.76189 c -0.15932,-0.99629 -0.23173,-1.07189 -1.02816,-1.07326 -1.36161,-0.002 -2.81034,-0.50492 -3.11922,-1.08208 -0.44913,-0.83921 -0.19194,-1.65466 0.64856,-2.056308 0.69791,-0.333512 0.80565,-0.318328 1.19062,0.16778 0.49762,0.628358 1.36222,0.935388 1.9735,0.700818 0.30696,-0.11779 0.43415,-0.49161 0.43415,-1.276001 0,-1.339434 0.35184,-1.7444 1.51559,-1.7444 h 0.88059 l -0.0736,3.638021 -0.0736,3.63802 -1.08852,0.0796 c -1.08499,0.0793 -1.08906,0.0761 -1.25989,-0.99219 z m 4.59736,-5.747329 c 0,-3.241895 0.0354,-3.472132 0.66684,-4.335031 1.02034,-1.394413 1.1725,-1.446869 3.93306,-1.3559 l 2.56629,0.08456 -0.0774,1.899811 c -0.0755,1.853811 -0.095,1.901836 -0.80484,1.983518 -0.56818,0.06538 -0.78122,-0.05764 -0.9729,-0.561787 -0.44025,-1.157973 -2.72914,-1.229522 -3.03352,-0.09483 -0.20237,0.75443 -0.20254,2.405491 -2.6e-4,2.932515 0.10839,0.282458 0.49545,0.418515 1.19063,0.418515 0.95834,0 1.03002,0.05298 1.03002,0.761354 0,1.085484 -0.54901,1.408454 -2.6497,1.558754 l -1.84822,0.13224 z m -57.023361,4.137229 c -0.25962,-0.42007 -2.498175,-14.140984 -2.685238,-16.458774 l -0.165295,-2.048134 1.183333,-0.523444 c 2.496637,-1.104384 8.449113,-1.19779 10.906227,-0.17114 1.188511,0.496591 1.364393,0.919448 1.882619,4.526266 0.229992,1.600729 0.769779,5.281372 1.199526,8.179205 0.429746,2.897833 0.781356,5.290981 0.781356,5.318111 0,0.0271 -1.421913,0.12969 -3.15981,0.2279 -1.737894,0.0982 -4.439766,0.41374 -6.00416,0.70116 -3.258608,0.59869 -3.704915,0.62689 -3.938558,0.24885 z m 15.073172,-0.80682 c -0.109752,-0.17758 -0.706795,-4.021551 -1.326764,-8.542156 -1.263748,-9.214839 -1.270492,-9.098417 0.586952,-10.131593 2.39537,-1.332389 7.565982,-2.285939 9.960051,-1.836809 0.761915,0.142936 0.999045,0.342066 1.225902,1.029448 0.428442,1.298192 2.426596,16.145108 2.20082,16.352768 -0.108797,0.100066 -1.209845,0.379669 -2.446772,0.621343 -1.865471,0.364476 -8.11491,2.106259 -9.594963,2.674199 -0.223123,0.0856 -0.495475,0.0104 -0.605226,-0.1672 z"
       id="path179" /></g></svg>
